<svg xmlns="http://www.w3.org/2000/svg" viewBox="0 2.809999942779541 37.849998474121094 7.690000057220459" data-asc="1.038"><g fill="#ffffff"><g fill="#ffffff" transform="translate(0, 0)"><path d="M2.72 10.50Q1.93 10.50 1.31 10.13Q0.70 9.76 0.35 9.12Q0 8.48 0 7.68Q0 6.87 0.35 6.24Q0.70 5.61 1.31 5.24Q1.93 4.87 2.72 4.87Q3.25 4.87 3.71 5.06Q4.17 5.25 4.52 5.57Q4.87 5.89 5.03 6.32L4.20 6.72Q4.01 6.30 3.62 6.04Q3.23 5.77 2.72 5.77Q2.23 5.77 1.83 6.02Q1.44 6.27 1.21 6.70Q0.98 7.13 0.98 7.69Q0.98 8.23 1.21 8.67Q1.44 9.10 1.83 9.35Q2.23 9.60 2.72 9.60Q3.23 9.60 3.62 9.34Q4.01 9.07 4.20 8.63L5.03 9.05Q4.87 9.47 4.52 9.80Q4.17 10.12 3.71 10.31Q3.25 10.50 2.72 10.50ZM6.25 10.38L6.25 2.81L7.18 2.81L7.18 6.04L7.01 5.95Q7.21 5.44 7.66 5.16Q8.10 4.87 8.70 4.87Q9.28 4.87 9.73 5.13Q10.19 5.39 10.46 5.85Q10.72 6.31 10.72 6.89L10.72 10.38L9.78 10.38L9.78 7.19Q9.78 6.74 9.62 6.43Q9.45 6.12 9.16 5.95Q8.87 5.77 8.49 5.77Q8.12 5.77 7.82 5.95Q7.52 6.12 7.35 6.44Q7.18 6.75 7.18 7.19L7.18 10.38L6.25 10.38ZM13.63 10.50Q13.10 10.50 12.70 10.31Q12.29 10.11 12.06 9.77Q11.83 9.42 11.83 8.97Q11.83 8.54 12.02 8.20Q12.20 7.85 12.60 7.61Q12.99 7.37 13.59 7.27L15.59 6.94L15.59 7.72L13.80 8.02Q13.28 8.11 13.04 8.35Q12.81 8.59 12.81 8.94Q12.81 9.27 13.07 9.49Q13.34 9.71 13.74 9.71Q14.25 9.71 14.63 9.50Q15 9.28 15.21 8.91Q15.43 8.54 15.43 8.09L15.43 6.72Q15.43 6.28 15.11 6.01Q14.78 5.73 14.25 5.73Q13.79 5.73 13.44 5.97Q13.08 6.20 12.91 6.59L12.10 6.17Q12.25 5.80 12.58 5.51Q12.91 5.21 13.35 5.04Q13.79 4.87 14.27 4.87Q14.89 4.87 15.36 5.11Q15.83 5.34 16.09 5.76Q16.36 6.17 16.36 6.72L16.36 10.38L15.45 10.38L15.45 9.36L15.62 9.42Q15.45 9.74 15.16 9.98Q14.87 10.22 14.48 10.36Q14.09 10.50 13.63 10.50ZM17.80 10.38L17.80 4.99L18.71 4.99L18.71 5.98L18.61 5.84Q18.80 5.38 19.19 5.16Q19.58 4.93 20.14 4.93L20.47 4.93L20.47 5.81L20 5.81Q19.43 5.81 19.08 6.17Q18.73 6.52 18.73 7.17L18.73 10.38L17.80 10.38ZM24.09 10.50Q23.44 10.50 22.90 10.21Q22.37 9.92 22.08 9.39L22.21 9.23L22.21 10.38L21.30 10.38L21.30 2.81L22.23 2.81L22.23 6.15L22.09 5.92Q22.39 5.44 22.91 5.16Q23.43 4.87 24.10 4.87Q24.86 4.87 25.46 5.24Q26.07 5.61 26.42 6.25Q26.77 6.88 26.77 7.69Q26.77 8.48 26.42 9.12Q26.07 9.76 25.46 10.13Q24.86 10.50 24.09 10.50M24.02 9.60Q24.53 9.60 24.93 9.35Q25.33 9.10 25.55 8.67Q25.78 8.23 25.78 7.69Q25.78 7.13 25.55 6.71Q25.33 6.28 24.93 6.03Q24.53 5.77 24.02 5.77Q23.51 5.77 23.10 6.02Q22.70 6.27 22.46 6.71Q22.23 7.14 22.23 7.69Q22.23 8.23 22.46 8.67Q22.70 9.10 23.10 9.35Q23.51 9.60 24.02 9.60ZM30.47 10.50Q29.69 10.50 29.08 10.13Q28.47 9.76 28.12 9.12Q27.77 8.47 27.77 7.67Q27.77 6.86 28.11 6.23Q28.46 5.60 29.05 5.24Q29.65 4.87 30.39 4.87Q30.99 4.87 31.45 5.09Q31.92 5.30 32.24 5.67Q32.57 6.03 32.74 6.50Q32.92 6.96 32.92 7.46Q32.92 7.57 32.91 7.71Q32.89 7.84 32.87 7.96L28.45 7.96L28.45 7.16L32.33 7.16L31.89 7.52Q31.98 7.00 31.79 6.59Q31.60 6.18 31.23 5.94Q30.86 5.70 30.39 5.70Q29.92 5.70 29.53 5.94Q29.14 6.18 28.93 6.63Q28.71 7.07 28.75 7.68Q28.71 8.27 28.93 8.71Q29.16 9.16 29.57 9.41Q29.99 9.65 30.48 9.65Q31.02 9.65 31.39 9.40Q31.76 9.15 31.99 8.76L32.77 9.16Q32.61 9.53 32.27 9.84Q31.94 10.14 31.48 10.32Q31.03 10.50 30.47 10.50ZM34.13 10.38L34.13 2.81L35.06 2.81L35.06 10.38L34.13 10.38ZM36.88 10.38L36.88 9.18L37.85 9.18L37.85 10.38L36.88 10.38Z"/></g></g></svg>